HIERARCHY
ROOT Hips
{
	OFFSET 0.00000 0.00000 0.00000
	CHANNELS 6 Xposition Yposition Zposition Zrotation Yrotation Xrotation 
	JOINT LHipJoint
	{
		OFFSET 0 0 0
		CHANNELS 3 Zrotation Yrotation Xrotation
		JOINT LeftHip
		{
			OFFSET 1.62964 -1.40469 0.78906
			CHANNELS 3 Zrotation Yrotation Xrotation
			JOINT LeftKnee
			{
				OFFSET 2.29640 -6.30932 0.00000
				CHANNELS 3 Zrotation Yrotation Xrotation
				JOINT LeftAnkle
				{
					OFFSET 2.29451 -6.30412 0.00000
					CHANNELS 3 Zrotation Yrotation Xrotation
					JOINT LeftToe
					{
						OFFSET 0.03611 -0.09921 1.56387
						CHANNELS 3 Zrotation Yrotation Xrotation
						End Site
						{
							OFFSET 0.00000 -0.00000 0.80291
						}
					}
				}
			}
		}
	}
	JOINT RHipJoint
	{
		OFFSET 0 0 0
		CHANNELS 3 Zrotation Yrotation Xrotation
		JOINT RightHip
		{
			OFFSET -1.73712 -1.40469 0.78906
			CHANNELS 3 Zrotation Yrotation Xrotation
			JOINT RightKnee
			{
				OFFSET -2.28137 -6.26801 0.00000
				CHANNELS 3 Zrotation Yrotation Xrotation
				JOINT RightAnkle
				{
					OFFSET -2.28681 -6.28298 0.00000
					CHANNELS 3 Zrotation Yrotation Xrotation
					JOINT RightToe
					{
						OFFSET -0.15927 -0.43759 1.61103
						CHANNELS 3 Zrotation Yrotation Xrotation
						End Site
						{
							OFFSET -0.00000 -0.00000 0.84630
						}
					}
				}
			}
		}
	}
	JOINT lowerback
	{
		OFFSET 0 0 0
		CHANNELS 3 Zrotation Yrotation Xrotation
		JOINT Chest
		{
			OFFSET -0.04227 2.04338 -0.00225
			CHANNELS 3 Zrotation Yrotation Xrotation
			JOINT Chest2
			{
				OFFSET -0.02148 2.04482 -0.04273
				CHANNELS 3 Zrotation Yrotation Xrotation
				JOINT lowerneck
				{
					OFFSET 0 0 0
					CHANNELS 3 Zrotation Yrotation Xrotation
					JOINT Neck
					{
						OFFSET 0.09180 1.44629 0.19359
						CHANNELS 3 Zrotation Yrotation Xrotation
						JOINT Head
						{
							OFFSET 0.00887 1.40645 0.14750
							CHANNELS 3 Zrotation Yrotation Xrotation
							End Site
							{
								OFFSET -0.00669 1.50671 0.03707
							}
						}
					}
				}
				JOINT LeftCollar
				{
					OFFSET 0 0 0
					CHANNELS 3 Zrotation Yrotation Xrotation
					JOINT LeftShoulder
					{
						OFFSET 2.17674 1.86763 -0.06520
CHANNELS 3 Zrotation Xrotation Yrotation
						JOINT LeftElbow
						{
OFFSET 0 -4.657760 0.000000
CHANNELS 3 Zrotation Xrotation Yrotation
							JOINT LeftWrist
							{
OFFSET 0 -3.555390 0.000000
CHANNELS 3 Zrotation Xrotation Yrotation
								JOINT lhand
								{
									OFFSET 0 0 0
CHANNELS 3 Zrotation Xrotation Yrotation
									JOINT LFingers
									{
OFFSET 0 -0.707260 0.000000
CHANNELS 3 Zrotation Xrotation Yrotation
										End Site
										{
OFFSET 0 -0.570220 0.000000
										}
									}
								}
								JOINT LThumb
								{
OFFSET 0 0.000000 0.000000
CHANNELS 3 Zrotation Xrotation Yrotation
									End Site
									{
OFFSET 0 -0.578920 0.578920
									}
								}
							}
						}
					}
				}
				JOINT RightCollar
				{
					OFFSET 0 0 0
					CHANNELS 3 Zrotation Yrotation Xrotation
					JOINT RightShoulder
					{
						OFFSET -2.80694 1.55459 -0.32496
CHANNELS 3 Zrotation Xrotation Yrotation
						JOINT RightElbow
						{
OFFSET 0 -4.719250 -0.000000
CHANNELS 3 Zrotation Xrotation Yrotation
							JOINT RightWrist
							{
OFFSET 0 -3.569900 0.000000
CHANNELS 3 Zrotation Xrotation Yrotation
								JOINT rhand
								{
									OFFSET 0 0 0
CHANNELS 3 Zrotation Xrotation Yrotation
									JOINT RFingers
									{
OFFSET 0 -0.507760 0.000000
CHANNELS 3 Zrotation Xrotation Yrotation
										End Site
										{
OFFSET 0 -0.409370 0.000000
										}
									}
								}
								JOINT RThumb
								{
OFFSET 0 0.000000 0.000000
CHANNELS 3 Zrotation Xrotation Yrotation
									End Site
									{
OFFSET 0 -0.415620 0.415620
									}
								}
							}
						}
					}
				}
			}
		}
	}
}
MOTION
Frames: 11
Frame Time: 0.008333333333333333
-1.246100 19.605300 20.236500 177.830000 -2.670000 -152.591000 0.000000 0.000000 0.000000 -22.533200 -14.538300 -18.445500 0.095400 1.991700 5.482600 0.192200 -2.321700 -7.802300 2.052200 -8.973900 -25.713600 0.000000 0.000000 0.000000 17.315800 13.828500 -20.094300 -0.105700 -2.096800 5.773400 -0.962100 3.360900 -17.713600 -1.468800 7.658700 -21.682100 -8.689500 -3.093400 -31.969400 -0.446400 -1.700000 -1.622900 3.388800 -1.666300 14.956100 0.044600 -3.157900 -5.346900 2.686400 -4.546100 7.127700 0.659000 -2.189100 3.301600 -0.000000 -0.000000 0.000000 5.572600 -0.716700 -27.030500 10.810500 -17.997200 1.716900 20.706300 -5.178600 9.899600 0.000000 0.000000 0.000000 -7.125000 0.000000 0.000000 -4.472000 19.428500 -2.738100 -0.000000 -0.000000 0.000000 0.995400 1.597000 11.364400 -15.350200 -24.631700 -3.370600 -6.785500 2.758400 52.681800 0.000000 0.000000 0.000000 7.125000 0.000000 -0.000000 68.150900 73.675700 -51.645700
-1.250683 19.605225 20.236425 177.948698 -2.676386 -152.617294 0.000000 0.000000 0.000000 -22.421339 -14.464151 -18.451961 0.095701 1.994930 5.491615 0.191298 -2.347318 -7.781866 2.054604 -8.978858 -25.729151 0.000000 0.000000 0.000000 17.448321 13.848333 -20.067781 -0.105850 -2.098152 5.777081 -0.960898 3.369014 -17.700603 -1.484576 7.697915 -21.800197 -8.571103 -3.052307 -31.973457 -0.414622 -1.691736 -1.627332 3.364685 -1.654806 14.952794 0.001178 -3.228067 -5.426533 2.738537 -4.648345 7.242642 0.676654 -2.238082 3.361325 0.000000 0.000000 0.000000 5.559603 -0.613403 -27.074298 10.767078 -17.930339 1.703528 19.963687 -5.006638 9.416470 0.000000 0.000000 0.000000 -7.125000 0.000000 0.000000 -4.996524 19.990887 -2.996456 0.000000 0.000000 0.000000 0.992094 1.627726 10.986670 -15.259899 -24.506917 -3.333037 -6.463438 2.728500 53.063962 0.000000 0.000000 0.000000 7.125000 0.000000 0.000000 69.565132 73.673296 -52.936652
-1.255416 19.605301 20.237104 178.018653 -2.672420 -152.644090 0.000000 0.000000 0.000000 -22.379978 -14.361159 -18.463798 0.095850 1.996804 5.496861 0.189241 -2.405447 -7.736256 2.032436 -8.933164 -25.586514 0.000000 0.000000 0.000000 17.542400 13.752640 -20.085432 -0.106553 -2.104731 5.795234 -0.960198 3.471598 -17.678863 -1.487237 7.704518 -21.820054 -8.478132 -3.009806 -31.956459 -0.424954 -1.670307 -1.634428 3.313786 -1.638236 14.933761 0.057352 -3.297832 -5.476518 2.735449 -4.753103 7.335774 0.659385 -2.288219 3.403110 0.000000 0.000000 0.000000 5.610374 -0.507895 -27.065886 10.698882 -17.825186 1.682618 19.750161 -4.846486 9.383885 0.000000 0.000000 0.000000 -7.125000 0.000000 0.000000 -5.148040 20.040670 -3.084412 0.000000 0.000000 0.000000 1.013160 1.626996 10.649342 -15.151609 -24.356858 -3.288289 -5.541788 2.167604 54.121087 0.000000 0.000000 0.000000 7.125000 0.000000 0.000000 73.460629 73.597577 -56.503244
-1.259590 19.605527 20.238511 178.044179 -2.667314 -152.675703 0.000000 0.000000 0.000000 -22.394021 -14.219122 -18.487128 0.096281 2.001406 5.509606 0.186282 -2.537426 -7.670927 1.950118 -8.757950 -25.043224 0.000000 0.000000 0.000000 17.592531 13.614961 -20.113351 -0.107708 -2.115977 5.826286 -0.960763 3.598591 -17.665888 -1.477037 7.679092 -21.743499 -8.424545 -2.977749 -31.917010 -0.458643 -1.646167 -1.635483 3.259906 -1.622225 14.910976 0.161457 -3.359049 -5.516623 2.720908 -4.850427 7.430698 0.630435 -2.334107 3.441775 0.000000 0.000000 0.000000 5.716844 -0.427150 -27.106538 10.605405 -17.680855 1.654145 20.001877 -4.894270 9.821537 0.000000 0.000000 0.000000 -7.125000 0.000000 0.000000 -4.974836 19.560162 -3.030009 0.000000 0.000000 0.000000 1.044159 1.587373 10.339245 -15.014418 -24.166095 -3.231990 -4.545369 1.530976 55.214802 0.000000 0.000000 0.000000 7.125000 0.000000 0.000000 77.489106 73.484550 -60.182052
-1.262521 19.605906 20.240615 178.029765 -2.669906 -152.716170 0.000000 0.000000 0.000000 -22.448365 -14.028866 -18.527742 0.097404 2.012643 5.540619 0.182674 -2.782477 -7.591394 1.773690 -8.377681 -23.867215 0.000000 0.000000 0.000000 17.593398 13.507616 -20.118526 -0.109207 -2.131267 5.868485 -0.963297 3.681541 -17.678430 -1.454440 7.622751 -21.573951 -8.423781 -2.967765 -31.854118 -0.497047 -1.629701 -1.622072 3.226465 -1.612355 14.896241 0.261666 -3.403141 -5.565542 2.738271 -4.929591 7.548957 0.613016 -2.369988 3.491197 0.000000 0.000000 0.000000 5.870009 -0.397043 -27.293938 10.486500 -17.497015 1.618191 20.644886 -5.331697 10.728263 0.000000 0.000000 0.000000 -7.125000 0.000000 0.000000 -4.532013 18.554502 -2.863155 0.000000 0.000000 0.000000 1.070584 1.502266 10.044369 -14.838467 -23.920672 -3.160204 -3.988231 1.263917 55.723311 0.000000 0.000000 0.000000 7.125000 0.000000 0.000000 79.362681 73.370593 -61.866330
-1.265601 19.606732 20.242869 177.994456 -2.655782 -152.741713 0.000000 0.000000 0.000000 -22.518157 -13.888757 -18.564103 0.098005 2.019104 5.558423 0.178767 -3.004021 -7.515518 1.592187 -7.954877 -22.579494 0.000000 0.000000 0.000000 17.533072 13.479970 -20.122357 -0.110259 -2.141258 5.896206 -0.962846 3.732626 -17.667912 -1.445501 7.600363 -21.506639 -8.465926 -2.992481 -31.811823 -0.504109 -1.644801 -1.602915 3.236231 -1.620543 14.902326 0.181583 -3.334327 -5.526853 2.868989 -4.838239 7.467446 0.675370 -2.323185 3.460696 0.000000 0.000000 0.000000 5.931311 -0.358428 -27.464698 10.381550 -17.334218 1.586788 20.192782 -4.791246 9.312754 0.000000 0.000000 0.000000 -7.125000 0.000000 0.000000 -4.833941 20.084803 -2.886368 0.000000 0.000000 0.000000 1.038205 1.452157 9.904787 -14.728483 -23.766440 -3.115729 -4.022939 1.401396 55.949964 0.000000 0.000000 0.000000 7.125000 0.000000 0.000000 80.109801 73.414617 -62.650863
-1.268985 19.607203 20.245732 177.964730 -2.613746 -152.748477 0.000000 0.000000 0.000000 -22.589470 -13.778744 -18.609447 0.098454 2.023433 5.570392 0.176028 -3.130255 -7.462479 1.535178 -7.822268 -22.175454 0.000000 0.000000 0.000000 17.474219 13.424563 -20.182268 -0.112224 -2.159776 5.947476 -0.961533 3.831874 -17.642728 -1.465895 7.651210 -21.659740 -8.514669 -3.014152 -31.792264 -0.496707 -1.655587 -1.590661 3.266349 -1.628275 14.910187 0.126875 -3.286827 -5.480804 2.942257 -4.774292 7.422070 0.713058 -2.291354 3.439076 0.000000 0.000000 0.000000 5.889639 -0.401320 -27.298165 10.206259 -17.061343 1.535187 20.469315 -4.821950 9.922068 0.000000 0.000000 0.000000 -7.125000 0.000000 0.000000 -4.647541 19.418893 -2.839596 0.000000 0.000000 0.000000 1.010445 1.455541 9.722066 -14.673921 -23.689908 -3.093738 -3.820486 1.401339 56.365462 0.000000 0.000000 0.000000 7.125000 0.000000 0.000000 81.550133 73.392105 -64.050247
-1.271947 19.607633 20.249249 177.959938 -2.568343 -152.751140 0.000000 0.000000 0.000000 -22.624383 -13.701868 -18.656879 0.099036 2.029016 5.585819 0.174522 -3.178860 -7.432933 1.544064 -7.843727 -22.240372 0.000000 0.000000 0.000000 17.442906 13.403255 -20.247610 -0.114576 -2.181975 6.008865 -0.961176 3.892848 -17.631381 -1.506795 7.752315 -21.964523 -8.546682 -3.027400 -31.769470 -0.478890 -1.664664 -1.587724 3.299927 -1.634209 14.905808 0.175077 -3.315835 -5.456813 2.908777 -4.823339 7.537507 0.690797 -2.316318 3.472854 0.000000 0.000000 0.000000 5.803506 -0.476396 -26.928913 9.999282 -16.738265 1.474972 20.770750 -4.814707 10.856089 0.000000 0.000000 0.000000 -7.125000 0.000000 0.000000 -4.446409 18.408690 -2.822713 0.000000 0.000000 0.000000 0.988214 1.489220 9.530530 -14.638961 -23.640782 -3.079724 -3.571258 1.397591 56.820912 0.000000 0.000000 0.000000 7.125000 0.000000 0.000000 83.135033 73.351690 -65.579907
-1.273825 19.608315 20.253458 177.997240 -2.542442 -152.763511 0.000000 0.000000 0.000000 -22.588780 -13.661274 -18.699213 0.099992 2.038728 5.612601 0.174280 -3.165780 -7.426832 1.565012 -7.894191 -22.393231 0.000000 0.000000 0.000000 17.462309 13.472863 -20.271003 -0.116798 -2.203088 6.067168 -0.963415 3.835729 -17.659808 -1.559294 7.880626 -22.351986 -8.540903 -3.027602 -31.718987 -0.454625 -1.674746 -1.596436 3.321259 -1.637264 14.875951 0.391261 -3.466918 -5.480065 2.727727 -5.056307 7.919050 0.579185 -2.432704 3.601400 0.000000 0.000000 0.000000 5.727730 -0.536300 -26.483998 9.797566 -16.422244 1.417197 20.454789 -4.219002 10.564638 0.000000 0.000000 0.000000 -7.125000 0.000000 0.000000 -4.662892 18.742807 -2.927042 0.000000 0.000000 0.000000 0.971556 1.531479 9.363685 -14.589201 -23.570735 -3.059766 -3.454759 1.513354 57.161498 0.000000 0.000000 0.000000 7.125000 0.000000 0.000000 84.299243 73.337962 -66.733394
-1.275703 19.609442 20.257815 178.015270 -2.545597 -152.801825 0.000000 0.000000 0.000000 -22.564816 -13.674346 -18.677652 0.099391 2.033319 5.597651 0.172777 -3.074277 -7.391749 1.618426 -8.021002 -22.778022 0.000000 0.000000 0.000000 17.455472 13.590058 -20.218716 -0.116648 -2.202186 6.064764 -0.964542 3.687882 -17.690384 -1.566356 7.897605 -22.403447 -8.541128 -3.042778 -31.612985 -0.441478 -1.708176 -1.621603 3.325691 -1.649585 14.804808 0.260844 -3.318245 -5.394948 2.774755 -4.839346 7.787806 0.630571 -2.327979 3.541375 0.000000 0.000000 0.000000 5.714958 -0.453813 -26.176360 9.689986 -16.253062 1.386997 20.228963 -4.054178 10.814955 0.000000 0.000000 0.000000 -7.125000 0.000000 0.000000 -4.827266 18.495795 -3.057685 0.000000 0.000000 0.000000 0.900788 1.559876 9.347533 -14.431738 -23.348364 -2.997186 -3.706653 1.689898 56.148886 0.000000 0.000000 0.000000 7.125000 0.000000 0.000000 80.859935 73.320082 -63.290481
-1.278043 19.609646 20.261148 178.025613 -2.540757 -152.815025 0.000000 0.000000 0.000000 -22.554637 -13.683061 -18.669365 0.099149 2.030780 5.590696 0.172300 -3.023315 -7.379626 1.689317 -8.185381 -23.279104 0.000000 0.000000 0.000000 17.437104 13.668250 -20.206918 -0.117061 -2.205949 6.075122 -0.965003 3.622244 -17.703278 -1.512889 7.766413 -22.007477 -8.563341 -3.067947 -31.546960 -0.406856 -1.746271 -1.643797 3.362054 -1.666877 14.756318 0.095985 -3.190739 -5.337251 2.839876 -4.646575 7.616381 0.692156 -2.234786 3.474379 0.000000 0.000000 0.000000 5.664824 -0.362766 -25.905573 9.602908 -16.116015 1.362691 20.134239 -4.033474 11.322455 0.000000 0.000000 0.000000 -7.125000 0.000000 0.000000 -4.905024 17.967563 -3.164495 0.000000 0.000000 0.000000 0.816490 1.583507 9.315288 -14.341775 -23.221169 -2.961566 -3.836722 1.786540 55.925658 0.000000 0.000000 0.000000 7.125000 0.000000 0.000000 80.080817 73.345613 -62.541327
